{
  "accessors": [
    {
      "bufferView": 2,
      "componentType": 5126,
      "count": 4463,
      "max": [
        91.66726684570313,
        107.20430755615234,
        205.86619567871094
      ],
      "min": [
        -91.66726684570313,
        12.76321029663086,
        -209.0869140625
      ],
      "type": "VEC3"
    },
    {
      "bufferView": 2,
      "byteOffset": 53556,
      "componentType": 5126,
      "count": 4463,
      "max": [
        1.0,
        1.0,
        1.0
      ],
      "min": [
        -1.0,
        -1.0,
        -1.0
      ],
      "type": "VEC3"
    },
    {
      "bufferView": 1,
      "componentType": 5126,
      "count": 4463,
      "max": [
        0.9986327290534973,
        0.9972835779190063
      ],
      "min": [
        0.0006881972076371312,
        0.0014446750283241272
      ],
      "type": "VEC2"
    },
    {
      "bufferView": 1,
      "byteOffset": 35704,
      "componentType": 5126,
      "count": 4463,
      "max": [
        0.9986327290534973,
        0.9972835779190063
      ],
      "min": [
        0.0006881972076371312,
        0.0014446750283241272
      ],
      "type": "VEC2"
    },
    {
      "bufferView": 0,
      "componentType": 5125,
      "count": 12201,
      "type": "SCALAR"
    },
    {
      "bufferView": 2,
      "byteOffset": 107112,
      "componentType": 5126,
      "count": 228,
      "max": [
        87.67428588867188,
        69.3780288696289,
        144.2263641357422
      ],
      "min": [
        59.33111572265625,
        -0.3020358085632324,
        74.54974365234375
      ],
      "type": "VEC3"
    },
    {
      "bufferView": 2,
      "byteOffset": 109848,
      "componentType": 5126,
      "count": 228,
      "max": [
        0.982513964176178,
        0.9895312190055847,
        0.9895146489143372
      ],
      "min": [
        -0.9825140833854675,
        -0.9895313382148743,
        -0.9895147681236267
      ],
      "type": "VEC3"
    },
    {
      "bufferView": 1,
      "byteOffset": 71408,
      "componentType": 5126,
      "count": 228,
      "max": [
        0.9702097177505493,
        0.9895797967910767
      ],
      "min": [
        0.014902276918292046,
        0.012481212615966797
      ],
      "type": "VEC2"
    },
    {
      "bufferView": 0,
      "byteOffset": 48804,
      "componentType": 5125,
      "count": 864,
      "type": "SCALAR"
    },
    {
      "bufferView": 2,
      "byteOffset": 112584,
      "componentType": 5126,
      "count": 376,
      "max": [
        84.72238159179688,
        56.006534576416016,
        130.8566436767578
      ],
      "min": [
        81.13623046875,
        13.069313049316406,
        87.91943359375
      ],
      "type": "VEC3"
    },
    {
      "bufferView": 2,
      "byteOffset": 117096,
      "componentType": 5126,
      "count": 376,
      "max": [
        0.9999987483024597,
        0.9527496099472046,
        0.9998633861541748
      ],
      "min": [
        -0.00732064712792635,
        -0.9998036623001099,
        -0.9999603033065796
      ],
      "type": "VEC3"
    },
    {
      "bufferView": 1,
      "byteOffset": 73232,
      "componentType": 5126,
      "count": 376,
      "max": [
        0.7873213291168213,
        0.7816621661186218
      ],
      "min": [
        0.022036444395780563,
        0.021449297666549683
      ],
      "type": "VEC2"
    },
    {
      "bufferView": 0,
      "byteOffset": 52260,
      "componentType": 5125,
      "count": 1230,
      "type": "SCALAR"
    },
    {
      "bufferView": 2,
      "byteOffset": 121608,
      "componentType": 5126,
      "count": 228,
      "max": [
        -59.195465087890625,
        69.52107238769531,
        144.3709716796875
      ],
      "min": [
        -87.5308837890625,
        -0.4450061321258545,
        74.40511322021484
      ],
      "type": "VEC3"
    },
    {
      "bufferView": 2,
      "byteOffset": 124344,
      "componentType": 5126,
      "count": 228,
      "max": [
        0.982513964176178,
        0.9936015009880066,
        0.993600606918335
      ],
      "min": [
        -0.9825140833854675,
        -0.9936012029647827,
        -0.9936006665229797
      ],
      "type": "VEC3"
    },
    {
      "bufferView": 1,
      "byteOffset": 76240,
      "componentType": 5126,
      "count": 228,
      "max": [
        0.9702097177505493,
        0.9895797967910767
      ],
      "min": [
        0.014902276918292046,
        0.012481212615966797
      ],
      "type": "VEC2"
    },
    {
      "bufferView": 0,
      "byteOffset": 57180,
      "componentType": 5125,
      "count": 864,
      "type": "SCALAR"
    },
    {
      "bufferView": 2,
      "byteOffset": 127080,
      "componentType": 5126,
      "count": 376,
      "max": [
        -81.00735473632813,
        55.98936462402344,
        130.83946228027344
      ],
      "min": [
        -84.59353637695313,
        13.086639404296875,
        87.93655395507813
      ],
      "type": "VEC3"
    },
    {
      "bufferView": 2,
      "byteOffset": 131592,
      "componentType": 5126,
      "count": 376,
      "max": [
        0.00732064712792635,
        0.996795117855072,
        0.9934507012367249
      ],
      "min": [
        -0.9999988675117493,
        -0.978226900100708,
        -0.996842086315155
      ],
      "type": "VEC3"
    },
    {
      "bufferView": 1,
      "byteOffset": 78064,
      "componentType": 5126,
      "count": 376,
      "max": [
        0.7873213291168213,
        0.7816621661186218
      ],
      "min": [
        0.022036444395780563,
        0.021449297666549683
      ],
      "type": "VEC2"
    },
    {
      "bufferView": 0,
      "byteOffset": 60636,
      "componentType": 5125,
      "count": 1230,
      "type": "SCALAR"
    },
    {
      "bufferView": 2,
      "byteOffset": 136104,
      "componentType": 5126,
      "count": 228,
      "max": [
        -55.456085205078125,
        74.33126831054688,
        -95.63397979736328
      ],
      "min": [
        -88.32952880859375,
        0.3117361068725586,
        -169.6549072265625
      ],
      "type": "VEC3"
    },
    {
      "bufferView": 2,
      "byteOffset": 138840,
      "componentType": 5126,
      "count": 228,
      "max": [
        0.982513964176178,
        0.9754505753517151,
        0.9754551649093628
      ],
      "min": [
        -0.9825140237808228,
        -0.9754507541656494,
        -0.9754552245140076
      ],
      "type": "VEC3"
    },
    {
      "bufferView": 1,
      "byteOffset": 81072,
      "componentType": 5126,
      "count": 228,
      "max": [
        0.9702097177505493,
        0.9895797967910767
      ],
      "min": [
        0.014902276918292046,
        0.012481212615966797
      ],
      "type": "VEC2"
    },
    {
      "bufferView": 0,
      "byteOffset": 65556,
      "componentType": 5125,
      "count": 864,
      "type": "SCALAR"
    },
    {
      "bufferView": 2,
      "byteOffset": 141576,
      "componentType": 5126,
      "count": 376,
      "max": [
        -81.512939453125,
        60.015411376953125,
        -109.95053100585938
      ],
      "min": [
        -85.37750244140625,
        14.62758731842041,
        -155.33834838867188
      ],
      "type": "VEC3"
    },
    {
      "bufferView": 2,
      "byteOffset": 146088,
      "componentType": 5126,
      "count": 376,
      "max": [
        0.007320646662265062,
        0.9599326848983765,
        0.9999645352363586
      ],
      "min": [
        -0.9999988675117493,
        -0.999986469745636,
        -0.9992045760154724
      ],
      "type": "VEC3"
    },
    {
      "bufferView": 1,
      "byteOffset": 82896,
      "componentType": 5126,
      "count": 376,
      "max": [
        0.7873213291168213,
        0.7816621661186218
      ],
      "min": [
        0.022036444395780563,
        0.021449297666549683
      ],
      "type": "VEC2"
    },
    {
      "bufferView": 0,
      "byteOffset": 69012,
      "componentType": 5125,
      "count": 1230,
      "type": "SCALAR"
    },
    {
      "bufferView": 2,
      "byteOffset": 150600,
      "componentType": 5126,
      "count": 376,
      "max": [
        85.85446166992188,
        60.19496154785156,
        -109.77092742919922
      ],
      "min": [
        81.9898681640625,
        14.44801139831543,
        -155.5178985595703
      ],
      "type": "VEC3"
    },
    {
      "bufferView": 2,
      "byteOffset": 155112,
      "componentType": 5126,
      "count": 376,
      "max": [
        0.9999987483024597,
        0.9987550973892212,
        0.9715423583984375
      ],
      "min": [
        -0.00732064712792635,
        -0.9964359402656555,
        -0.9987630844116211
      ],
      "type": "VEC3"
    },
    {
      "bufferView": 1,
      "byteOffset": 85904,
      "componentType": 5126,
      "count": 376,
      "max": [
        0.7873213291168213,
        0.7816621661186218
      ],
      "min": [
        0.022036444395780563,
        0.021449297666549683
      ],
      "type": "VEC2"
    },
    {
      "bufferView": 0,
      "byteOffset": 73932,
      "componentType": 5125,
      "count": 1230,
      "type": "SCALAR"
    },
    {
      "bufferView": 2,
      "byteOffset": 159624,
      "componentType": 5126,
      "count": 228,
      "max": [
        88.86166381835938,
        74.7781982421875,
        -95.1868667602539
      ],
      "min": [
        55.97454833984375,
        -0.13518714904785156,
        -170.10202026367188
      ],
      "type": "VEC3"
    },
    {
      "bufferView": 2,
      "byteOffset": 162360,
      "componentType": 5126,
      "count": 228,
      "max": [
        0.982513964176178,
        0.9872313737869263,
        0.9872387051582336
      ],
      "min": [
        -0.9825140237808228,
        -0.9872314929962158,
        -0.9872388243675232
      ],
      "type": "VEC3"
    },
    {
      "bufferView": 1,
      "byteOffset": 88912,
      "componentType": 5126,
      "count": 228,
      "max": [
        0.9702097177505493,
        0.9895797967910767
      ],
      "min": [
        0.014902276918292046,
        0.012481212615966797
      ],
      "type": "VEC2"
    },
    {
      "bufferView": 0,
      "byteOffset": 78852,
      "componentType": 5125,
      "count": 864,
      "type": "SCALAR"
    }
  ],
  "asset": {
    "extras": {
      "author": "Julian (https://sketchfab.com/julianrijken)",
      "license": "CC-BY-4.0 (http://creativecommons.org/licenses/by/4.0/)",
      "source": "https://sketchfab.com/3d-models/ford-gt40-mk-ii-nr1-ae378554e5214719842e476a19cd26af",
      "title": "Ford GT40 Mk II nr1"
    },
    "generator": "Sketchfab-15.14.0",
    "version": "2.0"
  },
  "bufferViews": [
    {
      "buffer": 0,
      "byteLength": 82308,
      "name": "floatBufferViews",
      "target": 34963
    },
    {
      "buffer": 0,
      "byteLength": 90736,
      "byteOffset": 82308,
      "byteStride": 8,
      "name": "floatBufferViews",
      "target": 34962
    },
    {
      "buffer": 0,
      "byteLength": 165096,
      "byteOffset": 173044,
      "byteStride": 12,
      "name": "floatBufferViews",
      "target": 34962
    }
  ],
  "buffers": [
    {
      "byteLength": 338140,
      "uri": "scene.bin"
    }
  ],
  "extensionsUsed": [
    "KHR_materials_specular"
  ],
  "images": [
    {
      "uri": "textures/CarTexture_baseColor.png"
    },
    {
      "uri": "textures/lambert11_baseColor.png"
    }
  ],
  "materials": [
    {
      "alphaMode": "BLEND",
      "doubleSided": true,
      "extensions": {
        "KHR_materials_specular": {
          "specularColorFactor": [
            1.0,
            1.0,
            1.0
          ],
          "specularFactor": 0.0
        }
      },
      "name": "CarTexture",
      "pbrMetallicRoughness": {
        "baseColorTexture": {
          "index": 0
        },
        "metallicFactor": 0.5898442922654685,
        "roughnessFactor": 0.7786166024122847
      }
    },
    {
      "alphaMode": "BLEND",
      "doubleSided": true,
      "extensions": {
        "KHR_materials_specular": {
          "specularColorFactor": [
            1.0,
            1.0,
            1.0
          ],
          "specularFactor": 0.0
        }
      },
      "name": "lambert11",
      "pbrMetallicRoughness": {
        "baseColorTexture": {
          "index": 1
        },
        "metallicFactor": 0.0
      }
    }
  ],
  "meshes": [
    {
      "name": "CarBody_CarTexture_0",
      "primitives": [
        {
          "attributes": {
            "NORMAL": 1,
            "POSITION": 0,
            "TEXCOORD_0": 2,
            "TEXCOORD_1": 3
          },
          "indices": 4,
          "material": 0,
          "mode": 4
        }
      ]
    },
    {
      "name": "Tire_3_lambert11_0",
      "primitives": [
        {
          "attributes": {
            "NORMAL": 6,
            "POSITION": 5,
            "TEXCOORD_0": 7
          },
          "indices": 8,
          "material": 1,
          "mode": 4
        }
      ]
    },
    {
      "name": "Rim_3_lambert11_0",
      "primitives": [
        {
          "attributes": {
            "NORMAL": 10,
            "POSITION": 9,
            "TEXCOORD_0": 11
          },
          "indices": 12,
          "material": 1,
          "mode": 4
        }
      ]
    },
    {
      "name": "Tire_1_lambert11_0",
      "primitives": [
        {
          "attributes": {
            "NORMAL": 14,
            "POSITION": 13,
            "TEXCOORD_0": 15
          },
          "indices": 16,
          "material": 1,
          "mode": 4
        }
      ]
    },
    {
      "name": "Rim_1_lambert11_0",
      "primitives": [
        {
          "attributes": {
            "NORMAL": 18,
            "POSITION": 17,
            "TEXCOORD_0": 19
          },
          "indices": 20,
          "material": 1,
          "mode": 4
        }
      ]
    },
    {
      "name": "Tire_1_lambert11_0",
      "primitives": [
        {
          "attributes": {
            "NORMAL": 22,
            "POSITION": 21,
            "TEXCOORD_0": 23
          },
          "indices": 24,
          "material": 1,
          "mode": 4
        }
      ]
    },
    {
      "name": "Rim_1_lambert11_0",
      "primitives": [
        {
          "attributes": {
            "NORMAL": 26,
            "POSITION": 25,
            "TEXCOORD_0": 27
          },
          "indices": 28,
          "material": 1,
          "mode": 4
        }
      ]
    },
    {
      "name": "Rim_2_lambert11_0",
      "primitives": [
        {
          "attributes": {
            "NORMAL": 30,
            "POSITION": 29,
            "TEXCOORD_0": 31
          },
          "indices": 32,
          "material": 1,
          "mode": 4
        }
      ]
    },
    {
      "name": "Tire_2_lambert11_0",
      "primitives": [
        {
          "attributes": {
            "NORMAL": 34,
            "POSITION": 33,
            "TEXCOORD_0": 35
          },
          "indices": 36,
          "material": 1,
          "mode": 4
        }
      ]
    }
  ],
  "nodes": [
    {
      "children": [
        1
      ],
      "matrix": [
        1.0,
        0.0,
        0.0,
        0.0,
        0.0,
        2.220446049250313e-16,
        -1.0,
        0.0,
        0.0,
        1.0,
        2.220446049250313e-16,
        0.0,
        0.0,
        0.0,
        0.0,
        1.0
      ],
      "name": "Sketchfab_model"
    },
    {
      "children": [
        2
      ],
      "matrix": [
        0.009999999776482582,
        0.0,
        0.0,
        0.0,
        0.0,
        0.0,
        0.009999999776482582,
        0.0,
        0.0,
        -0.009999999776482582,
        0.0,
        0.0,
        0.0,
        0.0,
        0.0,
        1.0
      ],
      "name": "4a1400f7e29a458aaf9788245263bae4.fbx"
    },
    {
      "children": [
        3
      ],
      "name": "RootNode"
    },
    {
      "children": [
        4,
        6,
        11,
        16,
        21
      ],
      "name": "Car"
    },
    {
      "children": [
        5
      ],
      "name": "CarBody"
    },
    {
      "mesh": 0,
      "name": "CarBody_CarTexture_0"
    },
    {
      "children": [
        7,
        9
      ],
      "name": "FrontWheel1"
    },
    {
      "children": [
        8
      ],
      "name": "Tire_3"
    },
    {
      "mesh": 1,
      "name": "Tire_3_lambert11_0"
    },
    {
      "children": [
        10
      ],
      "name": "Rim_3"
    },
    {
      "mesh": 2,
      "name": "Rim_3_lambert11_0"
    },
    {
      "children": [
        12,
        14
      ],
      "name": "FrontWheel2"
    },
    {
      "children": [
        13
      ],
      "name": "Tire_1"
    },
    {
      "mesh": 3,
      "name": "Tire_1_lambert11_0"
    },
    {
      "children": [
        15
      ],
      "name": "Rim_1"
    },
    {
      "mesh": 4,
      "name": "Rim_1_lambert11_0"
    },
    {
      "children": [
        17,
        19
      ],
      "name": "BackWheel2"
    },
    {
      "children": [
        18
      ],
      "name": "Tire_1"
    },
    {
      "mesh": 5,
      "name": "Tire_1_lambert11_0"
    },
    {
      "children": [
        20
      ],
      "name": "Rim_1"
    },
    {
      "mesh": 6,
      "name": "Rim_1_lambert11_0"
    },
    {
      "children": [
        22,
        24
      ],
      "name": "BackWheel1"
    },
    {
      "children": [
        23
      ],
      "name": "Rim_2"
    },
    {
      "mesh": 7,
      "name": "Rim_2_lambert11_0"
    },
    {
      "children": [
        25
      ],
      "name": "Tire_2"
    },
    {
      "mesh": 8,
      "name": "Tire_2_lambert11_0"
    }
  ],
  "samplers": [
    {
      "magFilter": 9729,
      "minFilter": 9987,
      "wrapS": 10497,
      "wrapT": 10497
    }
  ],
  "scene": 0,
  "scenes": [
    {
      "name": "Sketchfab_Scene",
      "nodes": [
        0
      ]
    }
  ],
  "textures": [
    {
      "sampler": 0,
      "source": 0
    },
    {
      "sampler": 0,
      "source": 1
    }
  ]
}
